# MagicaVoxel @ Ephtracy

# group
o 

# material
mtllib Dungeon_Floor.mtl
usemtl palette

# normals
vn -1 0 0
vn 1 0 0
vn 0 0 1
vn 0 0 -1
vn 0 -1 0
vn 0 1 0

# texcoords
vt 0.939453 0.5
vt 0.951172 0.5
vt 0.978516 0.5

# verts
v -2 0 2
v -2 0 -2
v -2 0.1 2
v -2 0.1 -2
v -2 0.2 2
v -2 0.2 -2
v -1.4 0.2 -0.6
v -1.4 0.2 -0.7
v -1.4 0.2 -1
v -1.4 0.3 -0.6
v -1.4 0.3 -1
v -1.3 0.2 1.3
v -1.3 0.2 1.1
v -1.3 0.2 -0.5
v -1.3 0.2 -0.6
v -1.3 0.2 -1
v -1.3 0.2 -1.1
v -1.3 0.3 1.3
v -1.3 0.3 1.1
v -1.3 0.3 -0.5
v -1.3 0.3 -0.6
v -1.3 0.3 -1
v -1.3 0.3 -1.1
v -1.2 0.2 1.4
v -1.2 0.2 1.3
v -1.2 0.2 -1.1
v -1.2 0.2 -1.2
v -1.2 0.3 1.4
v -1.2 0.3 1.3
v -1.2 0.3 -1.1
v -1.2 0.3 -1.2
v -0.4 0.2 0.3
v -0.4 0.2 -0.1
v -0.4 0.3 0.3
v -0.4 0.3 -0.1
v -0.3 0.2 -0.1
v -0.3 0.2 -0.2
v -0.3 0.3 -0.1
v -0.3 0.3 -0.2
v 0.7 0.2 0.9
v 0.7 0.2 0.7
v 0.7 0.3 0.9
v 0.7 0.3 0.7
v 0.8 0.2 1
v 0.8 0.2 0.9
v 0.8 0.2 0.7
v 0.8 0.2 0.5
v 0.8 0.2 0.4
v 0.8 0.3 1
v 0.8 0.3 0.9
v 0.8 0.3 0.7
v 0.8 0.3 0.4
v 0.9 0.2 0.4
v 0.9 0.2 0.3
v 0.9 0.2 -1.3
v 0.9 0.2 -1.5
v 0.9 0.3 0.4
v 0.9 0.3 0.3
v 0.9 0.3 -1.3
v 0.9 0.3 -1.5
v 1 0.2 -1.2
v 1 0.2 -1.3
v 1 0.2 -1.5
v 1 0.2 -1.6
v 1 0.3 -1.2
v 1 0.3 -1.3
v 1 0.3 -1.5
v 1 0.3 -1.6
v 1.1 0.2 -1.1
v 1.1 0.2 -1.2
v 1.1 0.3 -1.1
v 1.1 0.3 -1.2
v -1.2 0.2 1.2
v -1.2 0.2 1.1
v -1.2 0.3 1.2
v -1.2 0.3 1.1
v -1.1 0.2 1.3
v -1.1 0.2 1.2
v -1.1 0.2 -0.5
v -1.1 0.2 -0.6
v -1.1 0.3 1.3
v -1.1 0.3 1.2
v -1.1 0.3 -0.5
v -1.1 0.3 -0.6
v -1 0.2 1.4
v -1 0.2 1.3
v -1 0.2 -0.6
v -1 0.2 -0.7
v -1 0.2 -1.1
v -1 0.2 -1.2
v -1 0.3 1.4
v -1 0.3 1.3
v -1 0.3 -0.6
v -1 0.3 -0.7
v -1 0.3 -1.1
v -1 0.3 -1.2
v -0.9 0.2 -0.7
v -0.9 0.2 -1.1
v -0.9 0.3 -0.7
v -0.9 0.3 -1.1
v -0.3 0.2 0.3
v -0.3 0.2 0.2
v -0.3 0.3 0.3
v -0.3 0.3 0.2
v -0.2 0.2 0.2
v -0.2 0.2 0.0999999
v -0.2 0.2 -0.1
v -0.2 0.2 -0.2
v -0.2 0.3 0.2
v -0.2 0.3 0.0999999
v -0.2 0.3 -0.1
v -0.2 0.3 -0.2
v -0.0999999 0.2 0.0999999
v -0.0999999 0.2 -0.1
v -0.0999999 0.3 0.0999999
v -0.0999999 0.3 -0.1
v 1.1 0.2 1
v 1.1 0.2 0.9
v 1.1 0.2 0.4
v 1.1 0.2 0.3
v 1.1 0.2 -1.5
v 1.1 0.2 -1.6
v 1.1 0.3 1
v 1.1 0.3 0.9
v 1.1 0.3 0.4
v 1.1 0.3 0.3
v 1.1 0.3 -1.5
v 1.1 0.3 -1.6
v 1.2 0.2 0.9
v 1.2 0.2 0.4
v 1.2 0.2 -1.1
v 1.2 0.2 -1.2
v 1.2 0.2 -1.4
v 1.2 0.2 -1.5
v 1.2 0.3 0.9
v 1.2 0.3 0.4
v 1.2 0.3 -1.1
v 1.2 0.3 -1.2
v 1.2 0.3 -1.4
v 1.2 0.3 -1.5
v 1.3 0.2 -1.2
v 1.3 0.2 -1.4
v 1.3 0.3 -1.2
v 1.3 0.3 -1.4
v 2 0 2
v 2 0 -2
v 2 0.1 2
v 2 0.1 -2
v 2 0.2 2
v 2 0.2 -2
v -2 0 2
v -2 0.1 2
v -2 0.2 2
v 2 0 2
v 2 0.1 2
v 2 0.2 2
v -1.2 0.2 1.4
v -1.2 0.3 1.4
v -1 0.2 1.4
v -1 0.3 1.4
v -1.3 0.2 1.3
v -1.3 0.3 1.3
v -1.2 0.2 1.3
v -1.2 0.3 1.3
v 0.8 0.2 1
v 0.8 0.3 1
v 1.1 0.2 1
v 1.1 0.3 1
v 0.7 0.2 0.9
v 0.7 0.3 0.9
v 0.8 0.2 0.9
v 0.8 0.3 0.9
v 1.1 0.2 0.9
v 1.1 0.3 0.9
v 1.2 0.2 0.9
v 1.2 0.3 0.9
v -0.4 0.2 0.3
v -0.4 0.3 0.3
v -0.3 0.2 0.3
v -0.3 0.3 0.3
v -0.3 0.2 0.2
v -0.3 0.3 0.2
v -0.2 0.2 0.2
v -0.2 0.3 0.2
v -0.2 0.2 0.0999999
v -0.2 0.3 0.0999999
v -0.0999999 0.2 0.0999999
v -0.0999999 0.3 0.0999999
v -1.3 0.2 -0.5
v -1.3 0.3 -0.5
v -1.1 0.2 -0.5
v -1.1 0.3 -0.5
v -1.4 0.2 -0.6
v -1.4 0.3 -0.6
v -1.3 0.2 -0.6
v -1.3 0.3 -0.6
v -1.1 0.2 -0.6
v -1.1 0.3 -0.6
v -1 0.2 -0.6
v -1 0.3 -0.6
v -1 0.2 -0.7
v -1 0.3 -0.7
v -0.9 0.2 -0.7
v -0.9 0.3 -0.7
v 1.1 0.2 -1.1
v 1.1 0.3 -1.1
v 1.2 0.2 -1.1
v 1.2 0.3 -1.1
v 1 0.2 -1.2
v 1 0.3 -1.2
v 1.1 0.2 -1.2
v 1.1 0.3 -1.2
v 1.2 0.2 -1.2
v 1.2 0.3 -1.2
v 1.3 0.2 -1.2
v 1.3 0.3 -1.2
v 0.9 0.2 -1.3
v 0.9 0.3 -1.3
v 1 0.2 -1.3
v 1 0.3 -1.3
v -1.1 0.2 1.3
v -1.1 0.3 1.3
v -1 0.2 1.3
v -1 0.3 1.3
v -1.2 0.2 1.2
v -1.2 0.3 1.2
v -1.1 0.2 1.2
v -1.1 0.3 1.2
v -1.3 0.2 1.1
v -1.3 0.3 1.1
v -1.2 0.2 1.1
v -1.2 0.3 1.1
v 0.7 0.2 0.7
v 0.7 0.3 0.7
v 0.8 0.2 0.7
v 0.8 0.3 0.7
v 0.8 0.2 0.4
v 0.8 0.3 0.4
v 0.9 0.2 0.4
v 0.9 0.3 0.4
v 1.1 0.2 0.4
v 1.1 0.3 0.4
v 1.2 0.2 0.4
v 1.2 0.3 0.4
v 0.9 0.2 0.3
v 0.9 0.3 0.3
v 1.1 0.2 0.3
v 1.1 0.3 0.3
v -0.4 0.2 -0.1
v -0.4 0.3 -0.1
v -0.3 0.2 -0.1
v -0.3 0.3 -0.1
v -0.2 0.2 -0.1
v -0.2 0.3 -0.1
v -0.0999999 0.2 -0.1
v -0.0999999 0.3 -0.1
v -0.3 0.2 -0.2
v -0.3 0.3 -0.2
v -0.2 0.2 -0.2
v -0.2 0.3 -0.2
v -1.4 0.2 -1
v -1.4 0.3 -1
v -1.3 0.2 -1
v -1.3 0.3 -1
v -1.3 0.2 -1.1
v -1.3 0.3 -1.1
v -1.2 0.2 -1.1
v -1.2 0.3 -1.1
v -1 0.2 -1.1
v -1 0.3 -1.1
v -0.9 0.2 -1.1
v -0.9 0.3 -1.1
v -1.2 0.2 -1.2
v -1.2 0.3 -1.2
v -1 0.2 -1.2
v -1 0.3 -1.2
v 1.2 0.2 -1.4
v 1.2 0.3 -1.4
v 1.3 0.2 -1.4
v 1.3 0.3 -1.4
v 0.9 0.2 -1.5
v 0.9 0.3 -1.5
v 1 0.2 -1.5
v 1 0.3 -1.5
v 1.1 0.2 -1.5
v 1.1 0.3 -1.5
v 1.2 0.2 -1.5
v 1.2 0.3 -1.5
v 1 0.2 -1.6
v 1 0.3 -1.6
v 1.1 0.2 -1.6
v 1.1 0.3 -1.6
v -2 0 -2
v -2 0.1 -2
v -2 0.2 -2
v 2 0 -2
v 2 0.1 -2
v 2 0.2 -2
v -2 0 2
v 2 0 2
v -2 0 -2
v 2 0 -2
v -2 0.2 2
v 2 0.2 2
v 1.4 0.2 1.9
v 1.5 0.2 1.9
v 1.5 0.2 1.7
v 1.6 0.2 1.7
v 1.4 0.2 1.6
v 1.5 0.2 1.6
v 1.6 0.2 1.6
v 1.7 0.2 1.6
v -1.2 0.2 1.5
v -0.9 0.2 1.5
v -0.2 0.2 1.5
v -0.0999999 0.2 1.5
v -1.3 0.2 1.4
v -1.2 0.2 1.4
v -1 0.2 1.4
v 1.5 0.2 1.4
v 1.7 0.2 1.4
v -1.3 0.2 1.3
v -1.2 0.2 1.3
v -1.1 0.2 1.3
v -1 0.2 1.3
v -0.9 0.2 1.3
v -1.2 0.2 1.2
v -1.1 0.2 1.2
v -1 0.2 1.2
v -0.0999999 0.2 1.2
v 2.38419e-07 0.2 1.2
v -1.3 0.2 1.1
v -1.2 0.2 1.1
v -0.2 0.2 1.1
v -0.0999999 0.2 1.1
v 0.7 0.2 1.1
v 1.1 0.2 1.1
v -1.2 0.2 1
v -1.1 0.2 1
v 2.38419e-07 0.2 1
v 0.1 0.2 1
v 0.6 0.2 1
v 0.7 0.2 1
v 0.8 0.2 1
v 1.1 0.2 1
v 1.2 0.2 1
v -1.3 0.2 0.9
v -1.2 0.2 0.9
v -0.0999999 0.2 0.9
v 2.38419e-07 0.2 0.9
v 0.7 0.2 0.9
v 0.8 0.2 0.9
v 1.1 0.2 0.9
v 1.2 0.2 0.9
v 1.3 0.2 0.9
v 0.1 0.2 0.8
v 0.2 0.2 0.8
v 2.38419e-07 0.2 0.7
v 0.1 0.2 0.7
v 0.7 0.2 0.7
v 0.8 0.2 0.7
v -1.7 0.2 0.6
v -1.5 0.2 0.6
v 0.1 0.2 0.6
v 0.2 0.2 0.6
v 0.6 0.2 0.6
v 0.7 0.2 0.6
v -1.7 0.2 0.5
v -1.6 0.2 0.5
v 0.7 0.2 0.5
v 0.8 0.2 0.5
v -0.5 0.2 0.4
v -0.2 0.2 0.4
v 0.8 0.2 0.4
v 0.9 0.2 0.4
v 1.1 0.2 0.4
v 1.2 0.2 0.4
v -1.7 0.2 0.3
v -1.6 0.2 0.3
v -1.5 0.2 0.3
v -0.4 0.2 0.3
v -0.3 0.2 0.3
v -0.2 0.2 0.3
v -0.0999999 0.2 0.3
v 0.8 0.2 0.3
v 0.9 0.2 0.3
v 1.1 0.2 0.3
v 1.2 0.2 0.3
v 1.3 0.2 0.3
v -0.3 0.2 0.2
v -0.2 0.2 0.2
v 0.9 0.2 0.2
v 1.2 0.2 0.2
v -1.7 0.2 0.0999999
v -1.6 0.2 0.0999999
v -0.2 0.2 0.0999999
v -0.0999999 0.2 0.0999999
v 2.38419e-07 0.2 0.0999999
v -0.5 0.2 -0.1
v -0.4 0.2 -0.1
v -0.3 0.2 -0.1
v -0.2 0.2 -0.1
v -0.0999999 0.2 -0.1
v 1.5 0.2 -0.1
v 1.7 0.2 -0.1
v -0.4 0.2 -0.2
v -0.3 0.2 -0.2
v -0.2 0.2 -0.2
v -0.0999999 0.2 -0.2
v 2.38419e-07 0.2 -0.2
v 1.4 0.2 -0.2
v 1.5 0.2 -0.2
v 1.6 0.2 -0.2
v 1.7 0.2 -0.2
v -0.3 0.2 -0.3
v -0.0999999 0.2 -0.3
v 1.3 0.2 -0.3
v 1.4 0.2 -0.3
v 1.5 0.2 -0.3
v 1.6 0.2 -0.3
v -1.3 0.2 -0.4
v -1 0.2 -0.4
v -1.4 0.2 -0.5
v -1.3 0.2 -0.5
v -1.1 0.2 -0.5
v -1 0.2 -0.5
v -0.9 0.2 -0.5
v 1.4 0.2 -0.5
v 1.5 0.2 -0.5
v -1.4 0.2 -0.6
v -1.3 0.2 -0.6
v -1.1 0.2 -0.6
v -1 0.2 -0.6
v -0.9 0.2 -0.6
v -0.8 0.2 -0.6
v 1.2 0.2 -0.6
v 1.3 0.2 -0.6
v -1.8 0.2 -0.7
v -1.7 0.2 -0.7
v -1.5 0.2 -0.7
v -1.4 0.2 -0.7
v -1 0.2 -0.7
v -0.9 0.2 -0.7
v -0.8 0.2 -0.7
v -0.7 0.2 -0.7
v 1.3 0.2 -0.7
v 1.4 0.2 -0.7
v 0.2 0.2 -0.8
v 0.4 0.2 -0.8
v 1.2 0.2 -0.8
v 1.3 0.2 -0.8
v -0.8 0.2 -0.9
v -0.7 0.2 -0.9
v 0.3 0.2 -0.9
v 0.4 0.2 -0.9
v -1.5 0.2 -1
v -1.4 0.2 -1
v -1.3 0.2 -1
v 0.1 0.2 -1
v 0.2 0.2 -1
v 1 0.2 -1
v 1.3 0.2 -1
v -1.4 0.2 -1.1
v -1.3 0.2 -1.1
v -1.2 0.2 -1.1
v -1 0.2 -1.1
v -0.9 0.2 -1.1
v 2.38419e-07 0.2 -1.1
v 0.1 0.2 -1.1
v 0.2 0.2 -1.1
v 0.3 0.2 -1.1
v 0.9 0.2 -1.1
v 1 0.2 -1.1
v 1.1 0.2 -1.1
v 1.2 0.2 -1.1
v 1.3 0.2 -1.1
v 1.4 0.2 -1.1
v -1.8 0.2 -1.2
v -1.7 0.2 -1.2
v -1.6 0.2 -1.2
v -1.3 0.2 -1.2
v -1.2 0.2 -1.2
v -1 0.2 -1.2
v -0.9 0.2 -1.2
v -0.8 0.2 -1.2
v 1 0.2 -1.2
v 1.1 0.2 -1.2
v 1.2 0.2 -1.2
v 1.3 0.2 -1.2
v -1.2 0.2 -1.3
v -0.9 0.2 -1.3
v 0.9 0.2 -1.3
v 1 0.2 -1.3
v -0.0999999 0.2 -1.4
v 2.38419e-07 0.2 -1.4
v 0.1 0.2 -1.4
v 0.2 0.2 -1.4
v 1.2 0.2 -1.4
v 1.3 0.2 -1.4
v 0.9 0.2 -1.5
v 1 0.2 -1.5
v 1.1 0.2 -1.5
v 1.2 0.2 -1.5
v 1.3 0.2 -1.5
v 1.4 0.2 -1.5
v 0.9 0.2 -1.6
v 1 0.2 -1.6
v 1.1 0.2 -1.6
v 1.2 0.2 -1.6
v 1.3 0.2 -1.6
v -1.7 0.2 -1.7
v -1.6 0.2 -1.7
v 2.38419e-07 0.2 -1.7
v 0.1 0.2 -1.7
v 1 0.2 -1.7
v 1.2 0.2 -1.7
v -0.0999999 0.2 -1.8
v 2.38419e-07 0.2 -1.8
v -2 0.2 -2
v 2 0.2 -2
v -1.2 0.3 1.4
v -1 0.3 1.4
v -1.3 0.3 1.3
v -1.2 0.3 1.3
v -1.1 0.3 1.3
v -1 0.3 1.3
v -1.2 0.3 1.2
v -1.1 0.3 1.2
v -1.3 0.3 1.1
v -1.2 0.3 1.1
v 0.8 0.3 1
v 1.1 0.3 1
v 0.7 0.3 0.9
v 0.8 0.3 0.9
v 1.1 0.3 0.9
v 1.2 0.3 0.9
v 0.7 0.3 0.7
v 0.8 0.3 0.7
v 0.8 0.3 0.4
v 0.9 0.3 0.4
v 1.1 0.3 0.4
v 1.2 0.3 0.4
v -0.4 0.3 0.3
v -0.3 0.3 0.3
v 0.9 0.3 0.3
v 1.1 0.3 0.3
v -0.3 0.3 0.2
v -0.2 0.3 0.2
v -0.2 0.3 0.0999999
v -0.0999999 0.3 0.0999999
v -0.4 0.3 -0.1
v -0.3 0.3 -0.1
v -0.2 0.3 -0.1
v -0.0999999 0.3 -0.1
v -0.3 0.3 -0.2
v -0.2 0.3 -0.2
v -1.3 0.3 -0.5
v -1.1 0.3 -0.5
v -1.4 0.3 -0.6
v -1.3 0.3 -0.6
v -1.1 0.3 -0.6
v -1 0.3 -0.6
v -1 0.3 -0.7
v -0.9 0.3 -0.7
v -1.4 0.3 -1
v -1.3 0.3 -1
v -1.3 0.3 -1.1
v -1.2 0.3 -1.1
v -1 0.3 -1.1
v -0.9 0.3 -1.1
v 1.1 0.3 -1.1
v 1.2 0.3 -1.1
v -1.2 0.3 -1.2
v -1 0.3 -1.2
v 1 0.3 -1.2
v 1.1 0.3 -1.2
v 1.2 0.3 -1.2
v 1.3 0.3 -1.2
v 0.9 0.3 -1.3
v 1 0.3 -1.3
v 1.2 0.3 -1.4
v 1.3 0.3 -1.4
v 0.9 0.3 -1.5
v 1 0.3 -1.5
v 1.1 0.3 -1.5
v 1.2 0.3 -1.5
v 1 0.3 -1.6
v 1.1 0.3 -1.6

# faces
f 3/2/1 2/2/1 1/2/1
f 4/2/1 2/2/1 3/2/1
f 5/1/1 4/1/1 3/1/1
f 6/1/1 4/1/1 5/1/1
f 10/3/1 8/3/1 7/3/1
f 10/3/1 9/3/1 8/3/1
f 11/3/1 9/3/1 10/3/1
f 18/3/1 13/3/1 12/3/1
f 19/3/1 13/3/1 18/3/1
f 20/3/1 15/3/1 14/3/1
f 21/3/1 15/3/1 20/3/1
f 22/3/1 17/3/1 16/3/1
f 23/3/1 17/3/1 22/3/1
f 28/3/1 25/3/1 24/3/1
f 29/3/1 25/3/1 28/3/1
f 30/3/1 27/3/1 26/3/1
f 31/3/1 27/3/1 30/3/1
f 34/3/1 33/3/1 32/3/1
f 35/3/1 33/3/1 34/3/1
f 38/3/1 37/3/1 36/3/1
f 39/3/1 37/3/1 38/3/1
f 42/3/1 41/3/1 40/3/1
f 43/3/1 41/3/1 42/3/1
f 49/3/1 45/3/1 44/3/1
f 50/3/1 45/3/1 49/3/1
f 51/3/1 48/3/1 47/3/1
f 51/3/1 47/3/1 46/3/1
f 52/3/1 48/3/1 51/3/1
f 57/3/1 54/3/1 53/3/1
f 58/3/1 54/3/1 57/3/1
f 59/3/1 56/3/1 55/3/1
f 60/3/1 56/3/1 59/3/1
f 65/3/1 62/3/1 61/3/1
f 66/3/1 62/3/1 65/3/1
f 67/3/1 64/3/1 63/3/1
f 68/3/1 64/3/1 67/3/1
f 71/3/1 70/3/1 69/3/1
f 72/3/1 70/3/1 71/3/1
f 73/3/2 74/3/2 75/3/2
f 75/3/2 74/3/2 76/3/2
f 77/3/2 78/3/2 81/3/2
f 81/3/2 78/3/2 82/3/2
f 79/3/2 80/3/2 83/3/2
f 83/3/2 80/3/2 84/3/2
f 85/3/2 86/3/2 91/3/2
f 91/3/2 86/3/2 92/3/2
f 87/3/2 88/3/2 93/3/2
f 93/3/2 88/3/2 94/3/2
f 89/3/2 90/3/2 95/3/2
f 95/3/2 90/3/2 96/3/2
f 97/3/2 98/3/2 99/3/2
f 99/3/2 98/3/2 100/3/2
f 101/3/2 102/3/2 103/3/2
f 103/3/2 102/3/2 104/3/2
f 105/3/2 106/3/2 109/3/2
f 109/3/2 106/3/2 110/3/2
f 107/3/2 108/3/2 111/3/2
f 111/3/2 108/3/2 112/3/2
f 113/3/2 114/3/2 115/3/2
f 115/3/2 114/3/2 116/3/2
f 117/3/2 118/3/2 123/3/2
f 123/3/2 118/3/2 124/3/2
f 119/3/2 120/3/2 125/3/2
f 125/3/2 120/3/2 126/3/2
f 121/3/2 122/3/2 127/3/2
f 127/3/2 122/3/2 128/3/2
f 129/3/2 130/3/2 135/3/2
f 135/3/2 130/3/2 136/3/2
f 131/3/2 132/3/2 137/3/2
f 137/3/2 132/3/2 138/3/2
f 133/3/2 134/3/2 139/3/2
f 139/3/2 134/3/2 140/3/2
f 141/3/2 142/3/2 143/3/2
f 143/3/2 142/3/2 144/3/2
f 145/2/2 146/2/2 147/2/2
f 147/2/2 146/2/2 148/2/2
f 147/1/2 148/1/2 149/1/2
f 149/1/2 148/1/2 150/1/2
f 154/2/3 152/2/3 151/2/3
f 155/1/3 153/1/3 152/1/3
f 155/2/3 152/2/3 154/2/3
f 156/1/3 153/1/3 155/1/3
f 159/3/3 158/3/3 157/3/3
f 160/3/3 158/3/3 159/3/3
f 163/3/3 162/3/3 161/3/3
f 164/3/3 162/3/3 163/3/3
f 167/3/3 166/3/3 165/3/3
f 168/3/3 166/3/3 167/3/3
f 171/3/3 170/3/3 169/3/3
f 172/3/3 170/3/3 171/3/3
f 175/3/3 174/3/3 173/3/3
f 176/3/3 174/3/3 175/3/3
f 179/3/3 178/3/3 177/3/3
f 180/3/3 178/3/3 179/3/3
f 183/3/3 182/3/3 181/3/3
f 184/3/3 182/3/3 183/3/3
f 187/3/3 186/3/3 185/3/3
f 188/3/3 186/3/3 187/3/3
f 191/3/3 190/3/3 189/3/3
f 192/3/3 190/3/3 191/3/3
f 195/3/3 194/3/3 193/3/3
f 196/3/3 194/3/3 195/3/3
f 199/3/3 198/3/3 197/3/3
f 200/3/3 198/3/3 199/3/3
f 203/3/3 202/3/3 201/3/3
f 204/3/3 202/3/3 203/3/3
f 207/3/3 206/3/3 205/3/3
f 208/3/3 206/3/3 207/3/3
f 211/3/3 210/3/3 209/3/3
f 212/3/3 210/3/3 211/3/3
f 215/3/3 214/3/3 213/3/3
f 216/3/3 214/3/3 215/3/3
f 219/3/3 218/3/3 217/3/3
f 220/3/3 218/3/3 219/3/3
f 221/3/4 222/3/4 223/3/4
f 223/3/4 222/3/4 224/3/4
f 225/3/4 226/3/4 227/3/4
f 227/3/4 226/3/4 228/3/4
f 229/3/4 230/3/4 231/3/4
f 231/3/4 230/3/4 232/3/4
f 233/3/4 234/3/4 235/3/4
f 235/3/4 234/3/4 236/3/4
f 237/3/4 238/3/4 239/3/4
f 239/3/4 238/3/4 240/3/4
f 241/3/4 242/3/4 243/3/4
f 243/3/4 242/3/4 244/3/4
f 245/3/4 246/3/4 247/3/4
f 247/3/4 246/3/4 248/3/4
f 249/3/4 250/3/4 251/3/4
f 251/3/4 250/3/4 252/3/4
f 253/3/4 254/3/4 255/3/4
f 255/3/4 254/3/4 256/3/4
f 257/3/4 258/3/4 259/3/4
f 259/3/4 258/3/4 260/3/4
f 261/3/4 262/3/4 263/3/4
f 263/3/4 262/3/4 264/3/4
f 265/3/4 266/3/4 267/3/4
f 267/3/4 266/3/4 268/3/4
f 269/3/4 270/3/4 271/3/4
f 271/3/4 270/3/4 272/3/4
f 273/3/4 274/3/4 275/3/4
f 275/3/4 274/3/4 276/3/4
f 277/3/4 278/3/4 279/3/4
f 279/3/4 278/3/4 280/3/4
f 281/3/4 282/3/4 283/3/4
f 283/3/4 282/3/4 284/3/4
f 285/3/4 286/3/4 287/3/4
f 287/3/4 286/3/4 288/3/4
f 289/3/4 290/3/4 291/3/4
f 291/3/4 290/3/4 292/3/4
f 293/2/4 294/2/4 296/2/4
f 294/1/4 295/1/4 297/1/4
f 296/2/4 294/2/4 297/2/4
f 297/1/4 295/1/4 298/1/4
f 301/2/5 300/2/5 299/2/5
f 302/2/5 300/2/5 301/2/5
f 303/1/6 304/1/6 305/1/6
f 305/1/6 304/1/6 306/1/6
f 305/2/6 306/2/6 307/2/6
f 306/1/6 304/1/6 307/1/6
f 307/1/6 304/1/6 308/1/6
f 303/1/6 305/1/6 309/1/6
f 305/2/6 307/2/6 309/2/6
f 307/2/6 308/2/6 309/2/6
f 309/2/6 308/2/6 310/2/6
f 308/1/6 304/1/6 311/1/6
f 310/2/6 308/2/6 311/2/6
f 311/1/6 304/1/6 312/1/6
f 309/1/6 310/1/6 313/1/6
f 303/1/6 309/1/6 313/1/6
f 313/1/6 310/1/6 314/1/6
f 314/1/6 310/1/6 315/1/6
f 315/1/6 310/1/6 316/1/6
f 303/1/6 313/1/6 317/1/6
f 313/2/6 314/2/6 318/2/6
f 317/1/6 313/1/6 318/1/6
f 318/2/6 314/2/6 319/2/6
f 311/2/6 312/2/6 320/2/6
f 310/2/6 311/2/6 320/2/6
f 316/1/6 310/1/6 320/1/6
f 312/1/6 304/1/6 321/1/6
f 320/2/6 312/2/6 321/2/6
f 317/2/6 318/2/6 322/2/6
f 303/1/6 317/1/6 322/1/6
f 322/2/6 318/2/6 323/2/6
f 319/2/6 314/2/6 325/2/6
f 314/1/6 315/1/6 326/1/6
f 325/2/6 314/2/6 326/2/6
f 324/2/6 325/2/6 328/2/6
f 325/1/6 326/1/6 329/1/6
f 328/2/6 325/2/6 329/2/6
f 316/1/6 320/1/6 330/1/6
f 320/1/6 321/1/6 330/1/6
f 315/2/6 316/2/6 330/2/6
f 330/1/6 321/1/6 331/1/6
f 303/1/6 322/1/6 332/1/6
f 327/2/6 328/2/6 333/2/6
f 329/1/6 326/1/6 334/1/6
f 326/1/6 315/1/6 334/1/6
f 328/1/6 329/1/6 334/1/6
f 315/2/6 330/2/6 334/2/6
f 330/2/6 331/2/6 334/2/6
f 334/2/6 331/2/6 335/2/6
f 331/1/6 321/1/6 336/1/6
f 336/1/6 321/1/6 337/1/6
f 332/2/6 333/2/6 338/2/6
f 333/2/6 328/2/6 338/2/6
f 328/1/6 334/1/6 339/1/6
f 338/2/6 328/2/6 339/2/6
f 334/1/6 335/1/6 339/1/6
f 335/2/6 331/2/6 340/2/6
f 331/1/6 336/1/6 340/1/6
f 340/1/6 336/1/6 341/1/6
f 341/1/6 336/1/6 342/1/6
f 336/2/6 337/2/6 343/2/6
f 342/1/6 336/1/6 343/1/6
f 343/2/6 337/2/6 344/2/6
f 337/1/6 321/1/6 345/1/6
f 344/2/6 337/2/6 345/2/6
f 345/1/6 321/1/6 346/1/6
f 303/1/6 332/1/6 347/1/6
f 332/2/6 338/2/6 347/2/6
f 338/1/6 339/1/6 348/1/6
f 347/2/6 338/2/6 348/2/6
f 339/1/6 335/1/6 349/1/6
f 348/1/6 339/1/6 349/1/6
f 335/2/6 340/2/6 349/2/6
f 340/2/6 341/2/6 349/2/6
f 349/2/6 341/2/6 350/2/6
f 343/2/6 344/2/6 351/2/6
f 342/2/6 343/2/6 351/2/6
f 351/2/6 344/2/6 352/2/6
f 345/2/6 346/2/6 353/2/6
f 346/1/6 321/1/6 354/1/6
f 353/2/6 346/2/6 354/2/6
f 354/1/6 321/1/6 355/1/6
f 350/2/6 341/2/6 356/2/6
f 341/1/6 342/1/6 356/1/6
f 356/1/6 342/1/6 357/1/6
f 347/1/6 348/1/6 358/1/6
f 349/1/6 350/1/6 358/1/6
f 356/2/6 357/2/6 358/2/6
f 350/2/6 356/2/6 358/2/6
f 348/1/6 349/1/6 358/1/6
f 358/2/6 357/2/6 359/2/6
f 342/2/6 351/2/6 360/2/6
f 303/1/6 347/1/6 362/1/6
f 347/1/6 358/1/6 362/1/6
f 358/1/6 359/1/6 362/1/6
f 362/1/6 359/1/6 363/1/6
f 359/2/6 357/2/6 364/2/6
f 363/1/6 359/1/6 364/1/6
f 357/1/6 342/1/6 365/1/6
f 364/2/6 357/2/6 365/2/6
f 360/2/6 361/2/6 366/2/6
f 365/1/6 342/1/6 366/1/6
f 342/2/6 360/2/6 366/2/6
f 366/2/6 361/2/6 367/2/6
f 362/2/6 363/2/6 368/2/6
f 303/1/6 362/1/6 368/1/6
f 368/2/6 363/2/6 369/2/6
f 363/1/6 364/1/6 370/1/6
f 367/2/6 361/2/6 370/2/6
f 364/1/6 365/1/6 370/1/6
f 366/1/6 367/1/6 370/1/6
f 365/1/6 366/1/6 370/1/6
f 370/2/6 361/2/6 371/2/6
f 363/1/6 370/1/6 372/1/6
f 370/1/6 371/1/6 372/1/6
f 372/1/6 371/1/6 373/1/6
f 373/1/6 371/1/6 374/1/6
f 354/2/6 355/2/6 377/2/6
f 368/1/6 369/1/6 378/1/6
f 303/1/6 368/1/6 378/1/6
f 369/2/6 363/2/6 379/2/6
f 378/1/6 369/1/6 379/1/6
f 363/1/6 372/1/6 380/1/6
f 379/2/6 363/2/6 380/2/6
f 372/2/6 373/2/6 381/2/6
f 381/2/6 373/2/6 382/2/6
f 373/1/6 374/1/6 383/1/6
f 382/2/6 373/2/6 383/2/6
f 383/1/6 374/1/6 384/1/6
f 374/2/6 375/2/6 385/2/6
f 384/1/6 374/1/6 385/1/6
f 385/2/6 375/2/6 386/2/6
f 376/2/6 377/2/6 387/2/6
f 377/2/6 355/2/6 388/2/6
f 387/2/6 377/2/6 388/2/6
f 355/1/6 321/1/6 389/1/6
f 388/2/6 355/2/6 389/2/6
f 383/2/6 384/2/6 390/2/6
f 382/2/6 383/2/6 390/2/6
f 390/2/6 384/2/6 391/2/6
f 387/2/6 388/2/6 392/2/6
f 385/1/6 386/1/6 392/1/6
f 386/2/6 387/2/6 392/2/6
f 384/1/6 385/1/6 392/1/6
f 388/1/6 389/1/6 393/1/6
f 392/2/6 388/2/6 393/2/6
f 303/1/6 378/1/6 394/1/6
f 378/2/6 379/2/6 394/2/6
f 379/1/6 380/1/6 395/1/6
f 394/2/6 379/2/6 395/2/6
f 391/2/6 384/2/6 396/2/6
f 392/1/6 393/1/6 397/1/6
f 396/2/6 384/2/6 397/2/6
f 384/1/6 392/1/6 397/1/6
f 397/1/6 393/1/6 398/1/6
f 395/1/6 380/1/6 399/1/6
f 394/1/6 395/1/6 399/1/6
f 380/1/6 372/1/6 399/1/6
f 372/2/6 381/2/6 399/2/6
f 399/2/6 381/2/6 400/2/6
f 397/2/6 398/2/6 403/2/6
f 398/1/6 393/1/6 404/1/6
f 389/1/6 321/1/6 404/1/6
f 393/1/6 389/1/6 404/1/6
f 321/1/6 304/1/6 405/1/6
f 404/1/6 321/1/6 405/1/6
f 400/2/6 401/2/6 406/2/6
f 399/1/6 400/1/6 406/1/6
f 406/2/6 401/2/6 407/2/6
f 402/2/6 403/2/6 408/2/6
f 403/2/6 398/2/6 409/2/6
f 408/2/6 403/2/6 409/2/6
f 398/1/6 404/1/6 410/1/6
f 409/2/6 398/2/6 410/2/6
f 410/1/6 404/1/6 411/1/6
f 404/2/6 405/2/6 412/2/6
f 411/1/6 404/1/6 412/1/6
f 412/2/6 405/2/6 413/2/6
f 405/1/6 304/1/6 414/1/6
f 413/2/6 405/2/6 414/2/6
f 406/1/6 407/1/6 415/1/6
f 407/2/6 408/2/6 415/2/6
f 408/2/6 409/2/6 415/2/6
f 410/1/6 411/1/6 416/1/6
f 415/2/6 409/2/6 416/2/6
f 409/1/6 410/1/6 416/1/6
f 416/1/6 411/1/6 417/1/6
f 411/2/6 412/2/6 418/2/6
f 417/1/6 411/1/6 418/1/6
f 412/2/6 413/2/6 418/2/6
f 418/2/6 413/2/6 419/2/6
f 413/1/6 414/1/6 420/1/6
f 419/2/6 413/2/6 420/2/6
f 416/1/6 417/1/6 421/1/6
f 415/1/6 416/1/6 421/1/6
f 394/1/6 399/1/6 421/1/6
f 406/1/6 415/1/6 421/1/6
f 399/1/6 406/1/6 421/1/6
f 421/1/6 417/1/6 422/1/6
f 394/1/6 421/1/6 423/1/6
f 421/2/6 422/2/6 424/2/6
f 423/1/6 421/1/6 424/1/6
f 424/2/6 422/2/6 425/2/6
f 422/1/6 417/1/6 426/1/6
f 425/2/6 422/2/6 426/2/6
f 426/1/6 417/1/6 427/1/6
f 418/2/6 419/2/6 428/2/6
f 417/2/6 418/2/6 428/2/6
f 419/1/6 420/1/6 429/1/6
f 428/2/6 419/2/6 429/2/6
f 394/1/6 423/1/6 430/1/6
f 423/2/6 424/2/6 430/2/6
f 430/2/6 424/2/6 431/2/6
f 426/2/6 427/2/6 432/2/6
f 425/2/6 426/2/6 432/2/6
f 432/2/6 427/2/6 433/2/6
f 427/1/6 417/1/6 434/1/6
f 433/2/6 427/2/6 434/2/6
f 434/1/6 417/1/6 435/1/6
f 435/1/6 417/1/6 436/1/6
f 417/2/6 428/2/6 437/2/6
f 436/1/6 417/1/6 437/1/6
f 303/1/6 394/1/6 438/1/6
f 394/1/6 430/1/6 438/1/6
f 438/1/6 430/1/6 439/1/6
f 439/1/6 430/1/6 440/1/6
f 440/1/6 430/1/6 441/1/6
f 434/2/6 435/2/6 442/2/6
f 433/2/6 434/2/6 442/2/6
f 442/2/6 435/2/6 443/2/6
f 435/1/6 436/1/6 444/1/6
f 443/2/6 435/2/6 444/2/6
f 444/1/6 436/1/6 445/1/6
f 437/2/6 428/2/6 446/2/6
f 436/2/6 437/2/6 446/2/6
f 428/1/6 429/1/6 447/1/6
f 446/2/6 428/2/6 447/2/6
f 445/1/6 436/1/6 448/1/6
f 448/1/6 436/1/6 449/1/6
f 436/2/6 446/2/6 450/2/6
f 449/1/6 436/1/6 450/1/6
f 446/1/6 447/1/6 451/1/6
f 450/2/6 446/2/6 451/2/6
f 444/2/6 445/2/6 452/2/6
f 443/2/6 444/2/6 452/2/6
f 445/1/6 448/1/6 453/1/6
f 452/2/6 445/2/6 453/2/6
f 448/2/6 449/2/6 454/2/6
f 449/1/6 450/1/6 455/1/6
f 454/2/6 449/2/6 455/2/6
f 450/1/6 451/1/6 455/1/6
f 440/2/6 441/2/6 456/2/6
f 439/1/6 440/1/6 456/1/6
f 456/2/6 441/2/6 457/2/6
f 453/1/6 448/1/6 459/1/6
f 452/1/6 453/1/6 459/1/6
f 448/2/6 454/2/6 460/2/6
f 459/1/6 448/1/6 460/1/6
f 455/1/6 451/1/6 461/1/6
f 454/1/6 455/1/6 461/1/6
f 451/1/6 447/1/6 462/1/6
f 461/1/6 451/1/6 462/1/6
f 457/2/6 458/2/6 463/2/6
f 456/1/6 457/1/6 463/1/6
f 463/2/6 458/2/6 464/2/6
f 443/2/6 452/2/6 467/2/6
f 452/1/6 459/1/6 468/1/6
f 459/2/6 460/2/6 469/2/6
f 468/1/6 459/1/6 469/1/6
f 460/2/6 454/2/6 470/2/6
f 469/2/6 460/2/6 470/2/6
f 454/1/6 461/1/6 471/1/6
f 470/2/6 454/2/6 471/2/6
f 471/1/6 461/1/6 472/1/6
f 461/2/6 462/2/6 473/2/6
f 472/1/6 461/1/6 473/1/6
f 473/2/6 462/2/6 474/2/6
f 474/2/6 462/2/6 475/2/6
f 462/1/6 447/1/6 476/1/6
f 475/2/6 462/2/6 476/2/6
f 447/1/6 429/1/6 477/1/6
f 476/1/6 447/1/6 477/1/6
f 303/1/6 438/1/6 478/1/6
f 438/2/6 439/2/6 478/2/6
f 439/1/6 456/1/6 479/1/6
f 478/2/6 439/2/6 479/2/6
f 456/1/6 463/1/6 479/1/6
f 463/1/6 464/1/6 479/1/6
f 479/1/6 464/1/6 480/1/6
f 464/2/6 465/2/6 481/2/6
f 480/1/6 464/1/6 481/1/6
f 481/2/6 465/2/6 482/2/6
f 466/2/6 467/2/6 483/2/6
f 467/2/6 452/2/6 484/2/6
f 483/2/6 467/2/6 484/2/6
f 452/1/6 468/1/6 485/1/6
f 484/2/6 452/2/6 485/2/6
f 473/2/6 474/2/6 486/2/6
f 472/2/6 473/2/6 486/2/6
f 486/2/6 474/2/6 487/2/6
f 475/2/6 476/2/6 488/2/6
f 476/2/6 477/2/6 488/2/6
f 488/2/6 477/2/6 489/2/6
f 481/1/6 482/1/6 490/1/6
f 483/2/6 484/2/6 490/2/6
f 482/2/6 483/2/6 490/2/6
f 480/1/6 481/1/6 490/1/6
f 484/1/6 485/1/6 491/1/6
f 490/2/6 484/2/6 491/2/6
f 472/2/6 486/2/6 492/2/6
f 471/1/6 472/1/6 492/1/6
f 470/1/6 471/1/6 492/1/6
f 492/2/6 486/2/6 493/2/6
f 491/1/6 485/1/6 494/1/6
f 485/1/6 468/1/6 494/1/6
f 490/1/6 491/1/6 494/1/6
f 469/2/6 470/2/6 495/2/6
f 494/1/6 468/1/6 495/1/6
f 468/2/6 469/2/6 495/2/6
f 495/2/6 470/2/6 496/2/6
f 470/1/6 492/1/6 497/1/6
f 496/2/6 470/2/6 497/2/6
f 489/2/6 477/2/6 499/2/6
f 496/1/6 497/1/6 500/1/6
f 497/1/6 492/1/6 500/1/6
f 498/2/6 499/2/6 503/2/6
f 499/2/6 477/2/6 504/2/6
f 503/2/6 499/2/6 504/2/6
f 477/1/6 429/1/6 505/1/6
f 504/2/6 477/2/6 505/2/6
f 500/2/6 501/2/6 506/2/6
f 496/1/6 500/1/6 506/1/6
f 506/2/6 501/2/6 507/2/6
f 503/2/6 504/2/6 508/2/6
f 502/2/6 503/2/6 508/2/6
f 508/2/6 504/2/6 509/2/6
f 504/1/6 505/1/6 510/1/6
f 509/2/6 504/2/6 510/2/6
f 478/1/6 479/1/6 511/1/6
f 479/2/6 480/2/6 511/2/6
f 490/1/6 494/1/6 512/1/6
f 511/2/6 480/2/6 512/2/6
f 480/1/6 490/1/6 512/1/6
f 495/2/6 496/2/6 513/2/6
f 494/2/6 495/2/6 513/2/6
f 506/1/6 507/1/6 514/1/6
f 513/2/6 496/2/6 514/2/6
f 496/1/6 506/1/6 514/1/6
f 507/2/6 508/2/6 515/2/6
f 514/1/6 507/1/6 515/1/6
f 508/2/6 509/2/6 515/2/6
f 509/1/6 510/1/6 516/1/6
f 515/2/6 509/2/6 516/2/6
f 494/2/6 513/2/6 517/2/6
f 512/1/6 494/1/6 517/1/6
f 511/1/6 512/1/6 517/1/6
f 515/1/6 516/1/6 518/1/6
f 517/2/6 513/2/6 518/2/6
f 514/1/6 515/1/6 518/1/6
f 513/1/6 514/1/6 518/1/6
f 478/1/6 511/1/6 519/1/6
f 511/1/6 517/1/6 519/1/6
f 517/1/6 518/1/6 519/1/6
f 303/1/6 478/1/6 519/1/6
f 414/1/6 304/1/6 520/1/6
f 519/1/6 518/1/6 520/1/6
f 505/1/6 429/1/6 520/1/6
f 420/1/6 414/1/6 520/1/6
f 518/1/6 516/1/6 520/1/6
f 510/1/6 505/1/6 520/1/6
f 429/1/6 420/1/6 520/1/6
f 516/1/6 510/1/6 520/1/6
f 521/3/6 522/3/6 524/3/6
f 524/3/6 522/3/6 525/3/6
f 525/3/6 522/3/6 526/3/6
f 523/3/6 524/3/6 527/3/6
f 524/3/6 525/3/6 527/3/6
f 527/3/6 525/3/6 528/3/6
f 523/3/6 527/3/6 529/3/6
f 529/3/6 527/3/6 530/3/6
f 531/3/6 532/3/6 534/3/6
f 534/3/6 532/3/6 535/3/6
f 533/3/6 534/3/6 537/3/6
f 535/3/6 536/3/6 537/3/6
f 534/3/6 535/3/6 537/3/6
f 537/3/6 536/3/6 538/3/6
f 538/3/6 536/3/6 539/3/6
f 539/3/6 536/3/6 540/3/6
f 540/3/6 536/3/6 541/3/6
f 541/3/6 536/3/6 542/3/6
f 540/3/6 541/3/6 545/3/6
f 545/3/6 541/3/6 546/3/6
f 543/3/6 544/3/6 547/3/6
f 547/3/6 548/3/6 549/3/6
f 543/3/6 547/3/6 551/3/6
f 549/3/6 550/3/6 551/3/6
f 547/3/6 549/3/6 551/3/6
f 551/3/6 550/3/6 552/3/6
f 552/3/6 550/3/6 553/3/6
f 553/3/6 550/3/6 554/3/6
f 552/3/6 553/3/6 555/3/6
f 555/3/6 553/3/6 556/3/6
f 557/3/6 558/3/6 560/3/6
f 560/3/6 558/3/6 561/3/6
f 559/3/6 560/3/6 563/3/6
f 561/3/6 562/3/6 563/3/6
f 560/3/6 561/3/6 563/3/6
f 559/3/6 563/3/6 565/3/6
f 563/3/6 564/3/6 565/3/6
f 565/3/6 564/3/6 566/3/6
f 566/3/6 564/3/6 567/3/6
f 567/3/6 564/3/6 568/3/6
f 568/3/6 564/3/6 569/3/6
f 569/3/6 564/3/6 570/3/6
f 568/3/6 569/3/6 573/3/6
f 573/3/6 569/3/6 574/3/6
f 571/3/6 572/3/6 576/3/6
f 576/3/6 572/3/6 577/3/6
f 576/3/6 577/3/6 580/3/6
f 575/3/6 576/3/6 580/3/6
f 577/3/6 578/3/6 580/3/6
f 580/3/6 578/3/6 581/3/6
f 579/3/6 580/3/6 581/3/6
f 581/3/6 578/3/6 582/3/6
f 579/3/6 581/3/6 583/3/6
f 583/3/6 581/3/6 584/3/6
f 584/3/6 581/3/6 585/3/6
f 585/3/6 581/3/6 586/3/6
f 584/3/6 585/3/6 587/3/6
f 587/3/6 585/3/6 588/3/6
