# MagicaVoxel @ Ephtracy

# group
o 

# material
mtllib Morcego-0.mtl
usemtl palette

# normals
vn -1 0 0
vn 1 0 0
vn 0 0 1
vn 0 0 -1
vn 0 -1 0
vn 0 1 0

# texcoords
vt 0.220703 0.5
vt 0.224609 0.5

# verts
v -0.2 1.5 -0.6
v -0.2 1.5 -0.7
v -0.2 1.6 -0.5
v -0.2 1.6 -0.6
v -0.2 1.6 -0.7
v -0.2 1.8 -0.5
v -0.2 1.8 -0.6
v -0.0999999 1.6 -0.6
v -0.0999999 1.6 -0.7
v -0.0999999 1.7 -0.6
v -0.0999999 1.7 -0.7
v -0.0999999 1.8 -0.4
v -0.0999999 1.8 -0.5
v -0.0999999 2.1 -0.4
v -0.0999999 2.1 -0.5
v 5.96046e-08 1.6 -0.5
v 5.96046e-08 1.6 -0.6
v 5.96046e-08 1.7 -0.5
v 5.96046e-08 1.7 -0.6
v 0.1 2 -0.3
v 0.1 2 -0.4
v 0.1 2.1 -0.3
v 0.1 2.1 -0.4
v 0.2 1.8 -0.5
v 0.2 1.8 -0.6
v 0.2 1.9 -0.5
v 0.2 1.9 -0.6
v 0.3 1.9 -0.3
v 0.3 1.9 -0.4
v 0.3 2 -0.3
v 0.3 2 -0.4
v -0.0999999 1.5 -0.6
v -0.0999999 1.5 -0.7
v -0.0999999 1.6 -0.5
v -0.0999999 1.6 -0.6
v -0.0999999 1.6 -0.7
v -0.0999999 1.7 -0.5
v -0.0999999 1.7 -0.6
v 5.96046e-08 1.6 -0.6
v 5.96046e-08 1.6 -0.7
v 5.96046e-08 1.7 -0.6
v 5.96046e-08 1.7 -0.7
v 0.2 1.8 -0.4
v 0.2 1.8 -0.5
v 0.2 1.9 -0.4
v 0.2 1.9 -0.5
v 0.3 1.6 -0.5
v 0.3 1.6 -0.6
v 0.3 1.7 -0.5
v 0.3 1.7 -0.6
v 0.3 2 -0.3
v 0.3 2 -0.4
v 0.3 2 -0.5
v 0.3 2.1 -0.3
v 0.3 2.1 -0.4
v 0.3 2.1 -0.5
v 0.4 1.7 -0.5
v 0.4 1.7 -0.6
v 0.4 1.8 -0.5
v 0.4 1.8 -0.6
v 0.6 1.8 -0.5
v 0.6 1.8 -0.6
v 0.6 1.9 -0.3
v 0.6 1.9 -0.4
v 0.6 1.9 -0.5
v 0.6 1.9 -0.6
v 0.6 2 -0.3
v 0.6 2 -0.4
v 0.6 2 -0.5
v 0.1 2 -0.3
v 0.1 2.1 -0.3
v 0.3 1.9 -0.3
v 0.3 2 -0.3
v 0.3 2.1 -0.3
v 0.6 1.9 -0.3
v 0.6 2 -0.3
v -0.0999999 1.8 -0.4
v -0.0999999 2.1 -0.4
v 5.96046e-08 1.8 -0.4
v 5.96046e-08 2 -0.4
v 0.1 2 -0.4
v 0.1 2.1 -0.4
v 0.2 1.8 -0.4
v 0.2 1.9 -0.4
v 0.3 1.9 -0.4
v 0.3 2 -0.4
v -0.2 1.6 -0.5
v -0.2 1.8 -0.5
v -0.0999999 1.6 -0.5
v -0.0999999 1.7 -0.5
v -0.0999999 1.8 -0.5
v 5.96046e-08 1.6 -0.5
v 5.96046e-08 1.7 -0.5
v 5.96046e-08 1.8 -0.5
v 0.2 1.8 -0.5
v 0.2 1.9 -0.5
v 0.3 1.6 -0.5
v 0.3 1.7 -0.5
v 0.4 1.7 -0.5
v 0.4 1.8 -0.5
v 0.6 1.8 -0.5
v 0.6 1.9 -0.5
v -0.2 1.5 -0.6
v -0.2 1.6 -0.6
v -0.0999999 1.5 -0.6
v -0.0999999 1.6 -0.6
v -0.0999999 1.7 -0.6
v 5.96046e-08 1.6 -0.6
v 5.96046e-08 1.7 -0.6
v -0.0999999 1.8 -0.5
v -0.0999999 2.1 -0.5
v 5.96046e-08 1.8 -0.5
v 5.96046e-08 2 -0.5
v 0.1 2 -0.5
v 0.1 2.1 -0.5
v 0.2 1.8 -0.5
v 0.2 1.9 -0.5
v 0.3 2 -0.5
v 0.3 2.1 -0.5
v 0.6 1.9 -0.5
v 0.6 2 -0.5
v -0.2 1.6 -0.6
v -0.2 1.8 -0.6
v -0.0999999 1.6 -0.6
v -0.0999999 1.7 -0.6
v -0.0999999 1.8 -0.6
v 5.96046e-08 1.6 -0.6
v 5.96046e-08 1.7 -0.6
v 0.2 1.8 -0.6
v 0.2 1.9 -0.6
v 0.3 1.6 -0.6
v 0.3 1.7 -0.6
v 0.4 1.7 -0.6
v 0.4 1.8 -0.6
v 0.6 1.8 -0.6
v 0.6 1.9 -0.6
v -0.2 1.5 -0.7
v -0.2 1.6 -0.7
v -0.0999999 1.5 -0.7
v -0.0999999 1.6 -0.7
v -0.0999999 1.7 -0.7
v 5.96046e-08 1.6 -0.7
v 5.96046e-08 1.7 -0.7
v -0.2 1.5 -0.6
v -0.0999999 1.5 -0.6
v -0.2 1.5 -0.7
v -0.0999999 1.5 -0.7
v -0.2 1.6 -0.5
v -0.0999999 1.6 -0.5
v 5.96046e-08 1.6 -0.5
v 0.3 1.6 -0.5
v -0.2 1.6 -0.6
v -0.0999999 1.6 -0.6
v 5.96046e-08 1.6 -0.6
v 0.3 1.6 -0.6
v -0.0999999 1.6 -0.7
v 5.96046e-08 1.6 -0.7
v -0.0999999 1.7 -0.5
v 5.96046e-08 1.7 -0.5
v 0.3 1.7 -0.5
v 0.4 1.7 -0.5
v -0.0999999 1.7 -0.6
v 5.96046e-08 1.7 -0.6
v 0.3 1.7 -0.6
v 0.4 1.7 -0.6
v -0.0999999 1.8 -0.4
v 5.96046e-08 1.8 -0.4
v 0.2 1.8 -0.4
v -0.0999999 1.8 -0.5
v 5.96046e-08 1.8 -0.5
v 0.2 1.8 -0.5
v 0.4 1.8 -0.5
v 0.6 1.8 -0.5
v 0.4 1.8 -0.6
v 0.6 1.8 -0.6
v 0.3 1.9 -0.3
v 0.6 1.9 -0.3
v 0.2 1.9 -0.4
v 0.3 1.9 -0.4
v 0.6 1.9 -0.4
v 0.2 1.9 -0.5
v 0.6 1.9 -0.5
v 0.1 2 -0.3
v 0.3 2 -0.3
v 0.1 2 -0.4
v 0.3 2 -0.4
v -0.2 1.6 -0.6
v -0.0999999 1.6 -0.6
v -0.2 1.6 -0.7
v -0.0999999 1.6 -0.7
v -0.0999999 1.7 -0.6
v 5.96046e-08 1.7 -0.6
v -0.0999999 1.7 -0.7
v 5.96046e-08 1.7 -0.7
v -0.2 1.8 -0.5
v -0.0999999 1.8 -0.5
v 5.96046e-08 1.8 -0.5
v 0.2 1.8 -0.5
v -0.2 1.8 -0.6
v -0.0999999 1.8 -0.6
v 0.2 1.8 -0.6
v 0.2 1.9 -0.5
v 0.6 1.9 -0.5
v 0.2 1.9 -0.6
v 0.6 1.9 -0.6
v 0.3 2 -0.3
v 0.6 2 -0.3
v 0.3 2 -0.4
v 0.6 2 -0.4
v 0.3 2 -0.5
v 0.6 2 -0.5
v 0.1 2.1 -0.3
v 0.3 2.1 -0.3
v -0.0999999 2.1 -0.4
v 0.1 2.1 -0.4
v 0.3 2.1 -0.4
v -0.0999999 2.1 -0.5
v 0.1 2.1 -0.5
v 0.3 2.1 -0.5

# faces
f 4/2/1 2/2/1 1/2/1
f 5/2/1 2/2/1 4/2/1
f 6/1/1 4/1/1 3/1/1
f 7/1/1 4/1/1 6/1/1
f 10/2/1 9/2/1 8/2/1
f 11/2/1 9/2/1 10/2/1
f 14/1/1 13/1/1 12/1/1
f 15/1/1 13/1/1 14/1/1
f 18/2/1 17/2/1 16/2/1
f 19/2/1 17/2/1 18/2/1
f 22/1/1 21/1/1 20/1/1
f 23/1/1 21/1/1 22/1/1
f 26/2/1 25/2/1 24/2/1
f 27/2/1 25/2/1 26/2/1
f 30/1/1 29/1/1 28/1/1
f 31/1/1 29/1/1 30/1/1
f 32/2/2 33/2/2 35/2/2
f 35/2/2 33/2/2 36/2/2
f 34/1/2 35/1/2 37/1/2
f 37/1/2 35/1/2 38/1/2
f 39/2/2 40/2/2 41/2/2
f 41/2/2 40/2/2 42/2/2
f 43/2/2 44/2/2 45/2/2
f 45/2/2 44/2/2 46/2/2
f 47/2/2 48/2/2 49/2/2
f 49/2/2 48/2/2 50/2/2
f 51/1/2 52/1/2 54/1/2
f 52/2/2 53/2/2 55/2/2
f 54/1/2 52/1/2 55/1/2
f 55/2/2 53/2/2 56/2/2
f 57/2/2 58/2/2 59/2/2
f 59/2/2 58/2/2 60/2/2
f 61/2/2 62/2/2 65/2/2
f 65/2/2 62/2/2 66/2/2
f 63/1/2 64/1/2 67/1/2
f 64/2/2 65/2/2 68/2/2
f 67/1/2 64/1/2 68/1/2
f 68/2/2 65/2/2 69/2/2
f 73/1/3 71/1/3 70/1/3
f 74/1/3 71/1/3 73/1/3
f 75/1/3 73/1/3 72/1/3
f 76/1/3 73/1/3 75/1/3
f 79/1/3 78/1/3 77/1/3
f 80/1/3 78/1/3 79/1/3
f 81/2/3 80/2/3 79/2/3
f 81/1/3 78/1/3 80/1/3
f 82/1/3 78/1/3 81/1/3
f 83/2/3 81/2/3 79/2/3
f 84/2/3 81/2/3 83/2/3
f 85/2/3 81/2/3 84/2/3
f 86/2/3 81/2/3 85/2/3
f 89/1/3 88/1/3 87/1/3
f 90/1/3 88/1/3 89/1/3
f 91/1/3 88/1/3 90/1/3
f 93/2/3 91/2/3 90/2/3
f 94/2/3 91/2/3 93/2/3
f 95/2/3 93/2/3 92/2/3
f 95/2/3 94/2/3 93/2/3
f 97/2/3 95/2/3 92/2/3
f 97/2/3 96/2/3 95/2/3
f 98/2/3 96/2/3 97/2/3
f 99/2/3 96/2/3 98/2/3
f 100/2/3 96/2/3 99/2/3
f 101/2/3 96/2/3 100/2/3
f 102/2/3 96/2/3 101/2/3
f 105/2/3 104/2/3 103/2/3
f 106/2/3 104/2/3 105/2/3
f 108/2/3 107/2/3 106/2/3
f 109/2/3 107/2/3 108/2/3
f 110/1/4 111/1/4 112/1/4
f 112/1/4 111/1/4 113/1/4
f 112/2/4 113/2/4 114/2/4
f 113/1/4 111/1/4 114/1/4
f 114/1/4 111/1/4 115/1/4
f 112/2/4 114/2/4 116/2/4
f 114/2/4 115/2/4 116/2/4
f 116/2/4 115/2/4 117/2/4
f 117/2/4 115/2/4 118/2/4
f 118/2/4 115/2/4 119/2/4
f 117/2/4 118/2/4 120/2/4
f 120/2/4 118/2/4 121/2/4
f 122/1/4 123/1/4 124/1/4
f 124/1/4 123/1/4 125/1/4
f 125/1/4 123/1/4 126/1/4
f 125/2/4 126/2/4 128/2/4
f 128/2/4 126/2/4 129/2/4
f 127/2/4 128/2/4 129/2/4
f 127/2/4 129/2/4 131/2/4
f 129/2/4 130/2/4 131/2/4
f 131/2/4 130/2/4 132/2/4
f 132/2/4 130/2/4 133/2/4
f 133/2/4 130/2/4 134/2/4
f 134/2/4 130/2/4 135/2/4
f 135/2/4 130/2/4 136/2/4
f 137/2/4 138/2/4 139/2/4
f 139/2/4 138/2/4 140/2/4
f 140/2/4 141/2/4 142/2/4
f 142/2/4 141/2/4 143/2/4
f 146/2/5 145/2/5 144/2/5
f 147/2/5 145/2/5 146/2/5
f 152/1/5 149/1/5 148/1/5
f 153/1/5 149/1/5 152/1/5
f 154/2/5 151/2/5 150/2/5
f 155/2/5 151/2/5 154/2/5
f 156/2/5 154/2/5 153/2/5
f 157/2/5 154/2/5 156/2/5
f 162/2/5 159/2/5 158/2/5
f 163/2/5 159/2/5 162/2/5
f 164/2/5 161/2/5 160/2/5
f 165/2/5 161/2/5 164/2/5
f 169/1/5 167/1/5 166/1/5
f 170/2/5 168/2/5 167/2/5
f 170/1/5 167/1/5 169/1/5
f 171/2/5 168/2/5 170/2/5
f 174/2/5 173/2/5 172/2/5
f 175/2/5 173/2/5 174/2/5
f 179/1/5 177/1/5 176/1/5
f 180/1/5 177/1/5 179/1/5
f 181/2/5 179/2/5 178/2/5
f 181/2/5 180/2/5 179/2/5
f 182/2/5 180/2/5 181/2/5
f 185/1/5 184/1/5 183/1/5
f 186/1/5 184/1/5 185/1/5
f 187/2/6 188/2/6 189/2/6
f 189/2/6 188/2/6 190/2/6
f 191/2/6 192/2/6 193/2/6
f 193/2/6 192/2/6 194/2/6
f 195/1/6 196/1/6 199/1/6
f 197/2/6 198/2/6 200/2/6
f 199/1/6 196/1/6 200/1/6
f 196/2/6 197/2/6 200/2/6
f 200/2/6 198/2/6 201/2/6
f 202/2/6 203/2/6 204/2/6
f 204/2/6 203/2/6 205/2/6
f 206/1/6 207/1/6 208/1/6
f 208/1/6 207/1/6 209/1/6
f 208/2/6 209/2/6 210/2/6
f 210/2/6 209/2/6 211/2/6
f 212/1/6 213/1/6 215/1/6
f 215/1/6 213/1/6 216/1/6
f 214/1/6 215/1/6 217/1/6
f 215/2/6 216/2/6 218/2/6
f 217/1/6 215/1/6 218/1/6
f 218/2/6 216/2/6 219/2/6
